<?xml version="1.0" standalone="no"?>
<!DOCTYPE svg PUBLIC "-//W3C//DTD SVG 20010904//EN"
 "http://www.w3.org/TR/2001/REC-SVG-20010904/DTD/svg10.dtd">
<svg version="1.0" xmlns="http://www.w3.org/2000/svg"
 width="606.000000pt" height="763.000000pt" viewBox="0 0 606.000000 763.000000"
 preserveAspectRatio="xMidYMid meet">

<g transform="translate(0.000000,763.000000) scale(0.100000,-0.100000)"
fill="#000000" stroke="none">
<path d="M3756 7619 c-351 -30 -822 -238 -1389 -616 -654 -435 -1172 -949
-1594 -1583 -311 -466 -608 -1101 -718 -1535 -64 -256 -72 -523 -22 -718 68
-257 225 -495 532 -803 356 -358 800 -688 1354 -1006 150 -86 524 -278 543
-278 4 0 6 10 3 23 -12 53 -35 308 -46 497 -7 129 -8 281 -3 410 l8 205 13
-150 c16 -190 65 -481 108 -650 103 -400 324 -949 475 -1179 124 -190 251
-274 329 -220 59 42 66 156 22 370 -85 410 -213 789 -404 1189 -78 166 -295
590 -379 743 -23 41 -35 72 -27 67 8 -5 50 -41 94 -80 378 -337 823 -641 1265
-864 340 -172 553 -232 825 -232 328 0 564 96 786 320 297 301 436 707 504
1476 126 1411 -241 2774 -1050 3895 -396 549 -754 759 -1229 719z m-697 -2844
c21 -21 26 -36 29 -94 6 -106 -25 -207 -128 -422 -237 -496 -359 -859 -466
-1393 -24 -120 -45 -220 -47 -223 -6 -5 -43 197 -59 317 -20 157 -15 490 11
660 26 171 87 426 136 571 97 281 273 548 398 605 43 19 95 10 126 -21z
m-1069 -1610 c107 -54 275 -270 399 -512 l20 -41 -117 25 c-305 64 -496 166
-558 298 -29 62 -30 106 -3 162 47 97 148 123 259 68z"/>
<path d="M4382 1148 c12 -36 239 -144 456 -217 266 -90 812 -211 950 -211 110
0 171 33 158 85 -11 45 -113 82 -291 105 -237 31 -543 97 -840 181 -215 61
-444 91 -433 57z"/>
</g>
</svg>
